<?xml version="1.0" encoding="utf-8"?>
<!-- Generator: Adobe Illustrator 16.0.0, SVG Export Plug-In . SVG Version: 6.00 Build 0)  -->
<!DOCTYPE svg PUBLIC "-//W3C//DTD SVG 1.1//EN" "http://www.w3.org/Graphics/SVG/1.1/DTD/svg11.dtd">
<svg version="1.1" xmlns="http://www.w3.org/2000/svg" xmlns:xlink="http://www.w3.org/1999/xlink" x="0px" y="0px" width="640px"
	 height="960px" viewBox="0 0 640 960" enable-background="new 0 0 640 960" xml:space="preserve">
<g id="ver1" display="none">
	<g display="inline">
		
			<linearGradient id="triangle36_52_" gradientUnits="userSpaceOnUse" x1="21.936" y1="711.8965" x2="23.0352" y2="710.7973" gradientTransform="matrix(0 -168 -302 0 215131.25 4437.5)">
			<stop  offset="0" style="stop-color:#8E5B35"/>
			<stop  offset="1" style="stop-color:#D6C5B7"/>
		</linearGradient>
		<polygon id="triangle36" fill="url(#triangle36_52_)" points="356.553,773.867 147.495,603.92 534.83,609.989 		"/>
		
			<linearGradient id="triangle36_53_" gradientUnits="userSpaceOnUse" x1="31.7397" y1="691.8447" x2="32.8939" y2="690.6906" gradientTransform="matrix(0 -220 -170 0 118010 7875.5)">
			<stop  offset="0" style="stop-color:#A88C73"/>
			<stop  offset="1" style="stop-color:#A9A097"/>
		</linearGradient>
		<polygon id="triangle36_1_" fill="url(#triangle36_53_)" points="356.553,773.867 534.83,609.989 574.589,832.539 		"/>
		
			<linearGradient id="triangle36_54_" gradientUnits="userSpaceOnUse" x1="-9.8579" y1="702.1543" x2="-8.6531" y2="700.9495" gradientTransform="matrix(0 -97 -219 0 154074 -80.5)">
			<stop  offset="0" style="stop-color:#E5DFD1"/>
			<stop  offset="1" style="stop-color:#9E8675"/>
		</linearGradient>
		<polygon id="triangle36_2_" fill="url(#triangle36_54_)" points="293.708,871.992 356.553,773.867 574.589,832.539 		"/>
		
			<linearGradient id="triangle36_55_" gradientUnits="userSpaceOnUse" x1="24.145" y1="711.7734" x2="25.3276" y2="710.5908" gradientTransform="matrix(0 -178 -302 0 215131.25 4925.5)">
			<stop  offset="0" style="stop-color:#F3E5DD"/>
			<stop  offset="1" style="stop-color:#AE9F99"/>
		</linearGradient>
		<polygon id="triangle36_3_" fill="url(#triangle36_55_)" points="534.83,609.989 147.495,603.92 182.124,429.926 		"/>
		
			<linearGradient id="triangle36_56_" gradientUnits="userSpaceOnUse" x1="43.1152" y1="709.2295" x2="44.2935" y2="708.0512" gradientTransform="matrix(0 -335 -275 0 195259.25 15130.75)">
			<stop  offset="0" style="stop-color:#FFFFFF"/>
			<stop  offset="1" style="stop-color:#C0B9B5"/>
		</linearGradient>
		<polygon id="triangle36_4_" fill="url(#triangle36_56_)" points="534.83,609.989 446.332,271.106 182.124,429.926 		"/>
		
			<linearGradient id="triangle36_57_" gradientUnits="userSpaceOnUse" x1="29.5615" y1="683.1836" x2="30.7127" y2="682.0324" gradientTransform="matrix(0 -206 -141 0 96360 6773.5)">
			<stop  offset="0" style="stop-color:#FFFFFF"/>
			<stop  offset="1" style="stop-color:#B6B0AF"/>
		</linearGradient>
		<polygon id="triangle36_5_" fill="url(#triangle36_57_)" points="148,603.92 182,429.926 0,638.314 		"/>
		<polygon id="triangle36_6_" fill="#D2D6D8" points="356.553,773.867 147.495,603.92 87.214,858.841 		"/>
		<polygon id="triangle36_7_" fill="#CCCCCC" points="0,638.314 148,603.92 87,859 		"/>
		
			<linearGradient id="triangle36_58_" gradientUnits="userSpaceOnUse" x1="-10.041" y1="700.7168" x2="-8.8842" y2="699.56" gradientTransform="matrix(0 -97 -210 0 147280 -80.5)">
			<stop  offset="0" style="stop-color:#A89781"/>
			<stop  offset="1" style="stop-color:#826551"/>
		</linearGradient>
		<polygon id="triangle36_8_" fill="url(#triangle36_58_)" points="293.708,871.992 356.553,773.867 87.214,858.841 		"/>
		<polygon id="triangle36_9_" fill="#F5F7F9" points="87.214,858.841 0,638.314 0,958.988 		"/>
		<linearGradient id="triangle36_59_" gradientUnits="userSpaceOnUse" x1="0" y1="909.4199" x2="320.6411" y2="909.4199">
			<stop  offset="0" style="stop-color:#FFFFFF"/>
			<stop  offset="1" style="stop-color:#B6B0AF"/>
		</linearGradient>
		<polygon id="triangle36_10_" fill="url(#triangle36_59_)" points="0,958.988 87.214,858.841 320.641,960 		"/>
		
			<linearGradient id="triangle36_60_" gradientUnits="userSpaceOnUse" x1="-7.812" y1="695.458" x2="-6.4828" y2="694.1288" gradientTransform="matrix(0 -100 -182 0 126644 201.5)">
			<stop  offset="0" style="stop-color:#E5DFD1"/>
			<stop  offset="1" style="stop-color:#CEC9C6"/>
		</linearGradient>
		<polygon id="triangle36_11_" fill="url(#triangle36_60_)" points="293.708,871.992 87.214,858.841 320.641,960 		"/>
		
			<linearGradient id="triangle36_61_" gradientUnits="userSpaceOnUse" x1="7.5073" y1="702.2939" x2="8.6476" y2="701.1537" gradientTransform="matrix(0 -126 -219 0 154074 1891.5)">
			<stop  offset="0" style="stop-color:#E5DFD1"/>
			<stop  offset="1" style="stop-color:#C0B9B5"/>
		</linearGradient>
		<polygon id="triangle36_12_" fill="url(#triangle36_61_)" points="293.708,871.992 574.589,832.539 320.641,960 		"/>
		
			<linearGradient id="triangle36_62_" gradientUnits="userSpaceOnUse" x1="7.0708" y1="705.918" x2="8.2027" y2="704.7861" gradientTransform="matrix(0 -126 -248 0 175468 1891.5)">
			<stop  offset="0" style="stop-color:#FFFFFF"/>
			<stop  offset="1" style="stop-color:#C0B9B5"/>
		</linearGradient>
		<polygon id="triangle36_13_" fill="url(#triangle36_62_)" points="320.641,960 574.589,832.539 640,960 		"/>
		<polygon fill="#CBCBCB" points="182.12,429.93 0,638.31 0.02,12.25 0,0.07 0,0 0.03,0.07 5.19,12.25 		"/>
		
			<linearGradient id="SVGID_1_" gradientUnits="userSpaceOnUse" x1="-10340.5371" y1="10646.5977" x2="10384.8984" y2="-10078.8379">
			<stop  offset="0" style="stop-color:#6D554E"/>
			<stop  offset="1" style="stop-color:#E6DCD8"/>
		</linearGradient>
		<polygon fill="url(#SVGID_1_)" points="182.12,429.93 5.16,12.25 0,0.07 0.03,0.07 5.19,12.25 		"/>
		<linearGradient id="SVGID_2_" gradientUnits="userSpaceOnUse" x1="2.3472" y1="0.5288" x2="3.4592" y2="-0.5832">
			<stop  offset="0" style="stop-color:#FFFFFF"/>
			<stop  offset="1" style="stop-color:#FFFFFF"/>
		</linearGradient>
		<polygon fill="url(#SVGID_2_)" points="3.06,0.13 2.88,0.13 2.56,0 		"/>
		
			<linearGradient id="triangle36_63_" gradientUnits="userSpaceOnUse" x1="45.5762" y1="700.0312" x2="46.7787" y2="698.8287" gradientTransform="matrix(0 -375 -206 0 144406 17552.75)">
			<stop  offset="0" style="stop-color:#928988"/>
			<stop  offset="1" style="stop-color:#D3CCCA"/>
		</linearGradient>
		<polygon id="triangle36_18_" fill="url(#triangle36_63_)" points="182.124,429.926 446.332,271.106 283.447,50.58 		"/>
		
			<linearGradient id="triangle36_64_" gradientUnits="userSpaceOnUse" x1="46.8115" y1="586.1055" x2="47.9836" y2="584.9334" gradientTransform="matrix(0 -405 -51 0 30477.0312 20026.75)">
			<stop  offset="0" style="stop-color:#FFFFFF"/>
			<stop  offset="1" style="stop-color:#B1A980"/>
		</linearGradient>
		<polygon id="triangle36_19_" fill="url(#triangle36_64_)" points="640,960 574.589,832.539 640,550.306 		"/>
		
			<linearGradient id="triangle36_65_" gradientUnits="userSpaceOnUse" x1="39.0986" y1="643.4395" x2="40.2142" y2="642.3239" gradientTransform="matrix(0 -279 -82 0 53293 11710.5)">
			<stop  offset="0" style="stop-color:#A19690"/>
			<stop  offset="1" style="stop-color:#F0EECA"/>
		</linearGradient>
		<polygon id="triangle36_20_" fill="url(#triangle36_65_)" points="574.589,832.539 534.83,609.989 640,550.306 		"/>
		
			<linearGradient id="triangle36_66_" gradientUnits="userSpaceOnUse" x1="34.6387" y1="643.1338" x2="35.7858" y2="641.9867" gradientTransform="matrix(0 -241 -82 0 53293 9020.5)">
			<stop  offset="0" style="stop-color:#7A716F"/>
			<stop  offset="1" style="stop-color:#D6D5D3"/>
		</linearGradient>
		<polygon id="triangle36_21_" fill="url(#triangle36_66_)" points="534.83,609.989 640,550.306 640,366.196 		"/>
		
			<linearGradient id="triangle36_67_" gradientUnits="userSpaceOnUse" x1="43.4863" y1="686.3672" x2="44.6145" y2="685.2391" gradientTransform="matrix(0 -335 -151 0 104077 15130.75)">
			<stop  offset="0" style="stop-color:#928988"/>
			<stop  offset="1" style="stop-color:#D3CCCA"/>
		</linearGradient>
		<polygon id="triangle36_22_" fill="url(#triangle36_67_)" points="534.83,609.989 446.332,271.106 640,366.196 		"/>
		
			<linearGradient id="triangle36_68_" gradientUnits="userSpaceOnUse" x1="27.9487" y1="686.1367" x2="29.1279" y2="684.9575" gradientTransform="matrix(0 -197 -151 0 104077 5919.5)">
			<stop  offset="0" style="stop-color:#E3DAD7"/>
			<stop  offset="1" style="stop-color:#F7F6E0"/>
		</linearGradient>
		<polygon id="triangle36_23_" fill="url(#triangle36_68_)" points="446.332,271.106 610.501,166.913 640,366.196 		"/>
		
			<linearGradient id="triangle36_69_" gradientUnits="userSpaceOnUse" x1="37.7759" y1="683.8887" x2="38.9762" y2="682.6883" gradientTransform="matrix(0 -266 -144 0 98902 10310.5)">
			<stop  offset="0" style="stop-color:#AA9C98"/>
			<stop  offset="1" style="stop-color:#D8D5D5"/>
		</linearGradient>
		<polygon id="triangle36_24_" fill="url(#triangle36_69_)" points="446.332,271.106 610.501,166.913 425.812,2.023 		"/>
		
			<linearGradient id="triangle36_70_" gradientUnits="userSpaceOnUse" x1="37.5366" y1="676.9756" x2="38.7728" y2="675.7394" gradientTransform="matrix(0 -266 -127 0 86262 10310.5)">
			<stop  offset="0" style="stop-color:#FFFFFF"/>
			<stop  offset="1" style="stop-color:#B1A980"/>
		</linearGradient>
		<polygon id="triangle36_25_" fill="url(#triangle36_70_)" points="446.332,271.106 283.447,50.58 425.812,2.023 		"/>
		<polygon id="triangle36_26_" fill="#CCCCCC" points="640,366.196 610.501,166.913 640,2.023 		"/>
		<linearGradient id="triangle36_71_" gradientUnits="userSpaceOnUse" x1="425.8115" y1="84.4561" x2="640" y2="84.4561">
			<stop  offset="0" style="stop-color:#97A4B7"/>
			<stop  offset="0.882" style="stop-color:#FFFFFF"/>
		</linearGradient>
		<polygon id="triangle36_27_" fill="url(#triangle36_71_)" points="610.501,166.913 425.812,2.023 640,2 		"/>
		
			<linearGradient id="triangle36_72_" gradientUnits="userSpaceOnUse" x1="47.7998" y1="683.3135" x2="48.9155" y2="682.1978" gradientTransform="matrix(0 -418 -141 0 96439 20347.75)">
			<stop  offset="0" style="stop-color:#7A716F"/>
			<stop  offset="1" style="stop-color:#D6D5D3"/>
		</linearGradient>
		<polygon id="triangle36_28_" fill="url(#triangle36_72_)" points="182.124,429.926 283.447,50.58 102.605,7.081 		"/>
		<linearGradient id="SVGID_3_" gradientUnits="userSpaceOnUse" x1="36.042" y1="381.9199" x2="153.9479" y2="23.9915">
			<stop  offset="0" style="stop-color:#6D554E"/>
			<stop  offset="1" style="stop-color:#E6DCD8"/>
		</linearGradient>
		<polyline fill="url(#SVGID_3_)" points="13.44,1.45 102.61,7.08 103.58,12.25 182,430 5.19,12.25 0.03,0.07 2.88,0.13 3.06,0.13 
					"/>
		
			<linearGradient id="triangle36_73_" gradientUnits="userSpaceOnUse" x1="-85.9019" y1="706.9131" x2="-84.8074" y2="705.8186" gradientTransform="matrix(0 -48 -252 0 178246 -4077.5)">
			<stop  offset="0" style="stop-color:#D9D8D7"/>
			<stop  offset="1" style="stop-color:#FFFFFF"/>
		</linearGradient>
		<polygon id="triangle36_30_" fill="url(#triangle36_73_)" points="283.447,50.58 425.812,2.023 102.605,7.081 		"/>
	</g>
</g>
<g id="ver2">
	<g>
		
			<linearGradient id="triangle36_74_" gradientUnits="userSpaceOnUse" x1="21.936" y1="711.8965" x2="23.0352" y2="710.7973" gradientTransform="matrix(0 -168 -302 0 215131.25 4437.5)">
			<stop  offset="0" style="stop-color:#8E5B35"/>
			<stop  offset="1" style="stop-color:#D6C5B7"/>
		</linearGradient>
		<polygon id="triangle36_51_" fill="url(#triangle36_74_)" points="356.553,773.867 147.495,603.92 534.83,609.989 		"/>
		
			<linearGradient id="triangle36_75_" gradientUnits="userSpaceOnUse" x1="31.7397" y1="691.8447" x2="32.8939" y2="690.6906" gradientTransform="matrix(0 -220 -170 0 118010 7875.5)">
			<stop  offset="0" style="stop-color:#A88C73"/>
			<stop  offset="1" style="stop-color:#A9A097"/>
		</linearGradient>
		<polygon id="triangle36_50_" fill="url(#triangle36_75_)" points="356.553,773.867 534.83,609.989 574.589,832.539 		"/>
		
			<linearGradient id="triangle36_76_" gradientUnits="userSpaceOnUse" x1="-9.8579" y1="702.1543" x2="-8.6531" y2="700.9495" gradientTransform="matrix(0 -97 -219 0 154074 -80.5)">
			<stop  offset="0" style="stop-color:#E5DFD1"/>
			<stop  offset="1" style="stop-color:#9E8675"/>
		</linearGradient>
		<polygon id="triangle36_49_" fill="url(#triangle36_76_)" points="293.708,871.992 356.553,773.867 574.589,832.539 		"/>
		
			<linearGradient id="triangle36_77_" gradientUnits="userSpaceOnUse" x1="24.145" y1="711.7734" x2="25.3276" y2="710.5908" gradientTransform="matrix(0 -178 -302 0 215131.25 4925.5)">
			<stop  offset="0" style="stop-color:#F3E5DD"/>
			<stop  offset="1" style="stop-color:#AE9F99"/>
		</linearGradient>
		<polygon id="triangle36_48_" fill="url(#triangle36_77_)" points="534.83,609.989 147.495,603.92 182.124,429.926 		"/>
		
			<linearGradient id="triangle36_78_" gradientUnits="userSpaceOnUse" x1="43.1152" y1="709.2295" x2="44.2935" y2="708.0512" gradientTransform="matrix(0 -335 -275 0 195259.25 15130.75)">
			<stop  offset="0" style="stop-color:#FFFFFF"/>
			<stop  offset="1" style="stop-color:#C0B9B5"/>
		</linearGradient>
		<polygon id="triangle36_47_" fill="url(#triangle36_78_)" points="534.83,609.989 446.332,271.106 182.124,429.926 		"/>
		
			<linearGradient id="triangle36_79_" gradientUnits="userSpaceOnUse" x1="29.5615" y1="683.1836" x2="30.7127" y2="682.0324" gradientTransform="matrix(0 -206 -141 0 96360 6773.5)">
			<stop  offset="0" style="stop-color:#FFFFFF"/>
			<stop  offset="1" style="stop-color:#B6B0AF"/>
		</linearGradient>
		<polygon id="triangle36_46_" fill="url(#triangle36_79_)" points="148,603.92 182,429.926 0,638.314 		"/>
		<polygon id="triangle36_45_" fill="#D2D6D8" points="356.553,773.867 147.495,603.92 87.214,858.841 		"/>
		<polygon id="triangle36_44_" fill="#CCCCCC" points="0,638.314 148,603.92 87,859 		"/>
		
			<linearGradient id="triangle36_80_" gradientUnits="userSpaceOnUse" x1="-10.041" y1="700.7168" x2="-8.8842" y2="699.56" gradientTransform="matrix(0 -97 -210 0 147280 -80.5)">
			<stop  offset="0" style="stop-color:#A89781"/>
			<stop  offset="1" style="stop-color:#826551"/>
		</linearGradient>
		<polygon id="triangle36_43_" fill="url(#triangle36_80_)" points="293.708,871.992 356.553,773.867 87.214,858.841 		"/>
		<polygon id="triangle36_42_" fill="#F5F7F9" points="87.214,858.841 0,638.314 0,958.988 		"/>
		<linearGradient id="triangle36_81_" gradientUnits="userSpaceOnUse" x1="0" y1="909.4199" x2="320.6411" y2="909.4199">
			<stop  offset="0" style="stop-color:#FFFFFF"/>
			<stop  offset="1" style="stop-color:#B6B0AF"/>
		</linearGradient>
		<polygon id="triangle36_41_" fill="url(#triangle36_81_)" points="0,958.988 87.214,858.841 320.641,960 		"/>
		
			<linearGradient id="triangle36_82_" gradientUnits="userSpaceOnUse" x1="-7.812" y1="695.458" x2="-6.4828" y2="694.1288" gradientTransform="matrix(0 -100 -182 0 126644 201.5)">
			<stop  offset="0" style="stop-color:#E5DFD1"/>
			<stop  offset="1" style="stop-color:#CEC9C6"/>
		</linearGradient>
		<polygon id="triangle36_40_" fill="url(#triangle36_82_)" points="293.708,871.992 87.214,858.841 320.641,960 		"/>
		
			<linearGradient id="triangle36_83_" gradientUnits="userSpaceOnUse" x1="7.5073" y1="702.2939" x2="8.6476" y2="701.1537" gradientTransform="matrix(0 -126 -219 0 154074 1891.5)">
			<stop  offset="0" style="stop-color:#E5DFD1"/>
			<stop  offset="1" style="stop-color:#C0B9B5"/>
		</linearGradient>
		<polygon id="triangle36_39_" fill="url(#triangle36_83_)" points="293.708,871.992 574.589,832.539 320.641,960 		"/>
		
			<linearGradient id="triangle36_84_" gradientUnits="userSpaceOnUse" x1="7.0708" y1="705.918" x2="8.2027" y2="704.7861" gradientTransform="matrix(0 -126 -248 0 175468 1891.5)">
			<stop  offset="0" style="stop-color:#FFFFFF"/>
			<stop  offset="1" style="stop-color:#C0B9B5"/>
		</linearGradient>
		<polygon id="triangle36_38_" fill="url(#triangle36_84_)" points="320.641,960 574.589,832.539 640,960 		"/>
		<linearGradient id="SVGID_4_" gradientUnits="userSpaceOnUse" x1="0" y1="319.1548" x2="182.1201" y2="319.1548">
			<stop  offset="0" style="stop-color:#97A4B7"/>
			<stop  offset="0.882" style="stop-color:#FFFFFF"/>
		</linearGradient>
		<polygon fill="url(#SVGID_4_)" points="182.12,429.93 0,638.31 0.02,12.25 0,0.07 0,0 0.03,0.07 5.19,12.25 		"/>
		
			<linearGradient id="SVGID_5_" gradientUnits="userSpaceOnUse" x1="-10340.5371" y1="10646.5977" x2="10384.8984" y2="-10078.8379">
			<stop  offset="0" style="stop-color:#6D554E"/>
			<stop  offset="1" style="stop-color:#E6DCD8"/>
		</linearGradient>
		<polygon fill="url(#SVGID_5_)" points="182.12,429.93 5.16,12.25 0,0.07 0.03,0.07 5.19,12.25 		"/>
		<linearGradient id="SVGID_6_" gradientUnits="userSpaceOnUse" x1="2.3472" y1="0.5288" x2="3.4592" y2="-0.5832">
			<stop  offset="0" style="stop-color:#FFFFFF"/>
			<stop  offset="1" style="stop-color:#FFFFFF"/>
		</linearGradient>
		<polygon fill="url(#SVGID_6_)" points="3.06,0.13 2.88,0.13 2.56,0 		"/>
		
			<linearGradient id="triangle36_85_" gradientUnits="userSpaceOnUse" x1="45.5762" y1="700.0312" x2="46.7787" y2="698.8287" gradientTransform="matrix(0 -375 -206 0 144406 17552.75)">
			<stop  offset="0" style="stop-color:#928988"/>
			<stop  offset="1" style="stop-color:#D3CCCA"/>
		</linearGradient>
		<polygon id="triangle36_37_" fill="url(#triangle36_85_)" points="182.124,429.926 446.332,271.106 283.447,50.58 		"/>
		
			<linearGradient id="triangle36_86_" gradientUnits="userSpaceOnUse" x1="46.811" y1="586.1055" x2="47.9831" y2="584.9334" gradientTransform="matrix(0 -405 -51 0 30477.0625 20026.75)">
			<stop  offset="0" style="stop-color:#FFFFFF"/>
			<stop  offset="1" style="stop-color:#B1A980"/>
		</linearGradient>
		<polygon id="triangle36_36_" fill="url(#triangle36_86_)" points="640,960 574.589,832.539 640,550.306 		"/>
		
			<linearGradient id="triangle36_87_" gradientUnits="userSpaceOnUse" x1="39.0986" y1="643.4395" x2="40.2142" y2="642.3239" gradientTransform="matrix(0 -279 -82 0 53293 11710.5)">
			<stop  offset="0" style="stop-color:#A19690"/>
			<stop  offset="1" style="stop-color:#F0EECA"/>
		</linearGradient>
		<polygon id="triangle36_35_" fill="url(#triangle36_87_)" points="574.589,832.539 534.83,609.989 640,550.306 		"/>
		
			<linearGradient id="triangle36_88_" gradientUnits="userSpaceOnUse" x1="34.6387" y1="643.1338" x2="35.7858" y2="641.9867" gradientTransform="matrix(0 -241 -82 0 53293 9020.5)">
			<stop  offset="0" style="stop-color:#7A716F"/>
			<stop  offset="1" style="stop-color:#D6D5D3"/>
		</linearGradient>
		<polygon id="triangle36_34_" fill="url(#triangle36_88_)" points="534.83,609.989 640,550.306 640,366.196 		"/>
		
			<linearGradient id="triangle36_89_" gradientUnits="userSpaceOnUse" x1="43.4863" y1="686.3672" x2="44.6145" y2="685.2391" gradientTransform="matrix(0 -335 -151 0 104077 15130.75)">
			<stop  offset="0" style="stop-color:#928988"/>
			<stop  offset="1" style="stop-color:#D3CCCA"/>
		</linearGradient>
		<polygon id="triangle36_33_" fill="url(#triangle36_89_)" points="534.83,609.989 446.332,271.106 640,366.196 		"/>
		
			<linearGradient id="triangle36_90_" gradientUnits="userSpaceOnUse" x1="27.9487" y1="686.1367" x2="29.1279" y2="684.9575" gradientTransform="matrix(0 -197 -151 0 104077 5919.5)">
			<stop  offset="0" style="stop-color:#E3DAD7"/>
			<stop  offset="1" style="stop-color:#F7F6E0"/>
		</linearGradient>
		<polygon id="triangle36_32_" fill="url(#triangle36_90_)" points="446.332,271.106 610.5,166.913 640,366.196 		"/>
		
			<linearGradient id="triangle36_91_" gradientUnits="userSpaceOnUse" x1="37.7759" y1="683.8887" x2="38.9762" y2="682.6883" gradientTransform="matrix(0 -266 -144 0 98902 10310.5)">
			<stop  offset="0" style="stop-color:#AA9C98"/>
			<stop  offset="1" style="stop-color:#D8D5D5"/>
		</linearGradient>
		<polygon id="triangle36_31_" fill="url(#triangle36_91_)" points="446.332,271.106 610.5,166.913 425.812,2.023 		"/>
		
			<linearGradient id="triangle36_92_" gradientUnits="userSpaceOnUse" x1="37.5366" y1="676.9756" x2="38.7728" y2="675.7394" gradientTransform="matrix(0 -266 -127 0 86262 10310.5)">
			<stop  offset="0" style="stop-color:#FFFFFF"/>
			<stop  offset="1" style="stop-color:#B1A980"/>
		</linearGradient>
		<polygon id="triangle36_29_" fill="url(#triangle36_92_)" points="446.332,271.106 283.447,50.58 425.812,2.023 		"/>
		<polygon id="triangle36_17_" fill="#CCCCCC" points="640,366.196 610.5,166.913 640,2.023 		"/>
		<linearGradient id="triangle36_93_" gradientUnits="userSpaceOnUse" x1="425.8115" y1="84.4561" x2="640" y2="84.4561">
			<stop  offset="0" style="stop-color:#97A4B7"/>
			<stop  offset="0.882" style="stop-color:#FFFFFF"/>
		</linearGradient>
		<polygon id="triangle36_16_" fill="url(#triangle36_93_)" points="610.5,166.913 425.812,2.023 640,2 		"/>
		
			<linearGradient id="triangle36_94_" gradientUnits="userSpaceOnUse" x1="47.7998" y1="683.3135" x2="48.9155" y2="682.1978" gradientTransform="matrix(0 -418 -141 0 96439 20347.75)">
			<stop  offset="0" style="stop-color:#7A716F"/>
			<stop  offset="1" style="stop-color:#D6D5D3"/>
		</linearGradient>
		<polygon id="triangle36_15_" fill="url(#triangle36_94_)" points="182.124,429.926 283.447,50.58 102.605,7.081 		"/>
		<linearGradient id="SVGID_7_" gradientUnits="userSpaceOnUse" x1="36.042" y1="381.9199" x2="153.9479" y2="23.9915">
			<stop  offset="0" style="stop-color:#6D554E"/>
			<stop  offset="1" style="stop-color:#E6DCD8"/>
		</linearGradient>
		<polyline fill="url(#SVGID_7_)" points="13.44,1.45 102.61,7.08 103.58,12.25 182,430 5.19,12.25 0.03,0.07 2.88,0.13 3.06,0.13 
					"/>
		
			<linearGradient id="triangle36_95_" gradientUnits="userSpaceOnUse" x1="-85.9019" y1="706.9131" x2="-84.8074" y2="705.8186" gradientTransform="matrix(0 -48 -252 0 178246 -4077.5)">
			<stop  offset="0" style="stop-color:#D9D8D7"/>
			<stop  offset="1" style="stop-color:#FFFFFF"/>
		</linearGradient>
		<polygon id="triangle36_14_" fill="url(#triangle36_95_)" points="283.447,50.58 425.812,2.023 102.605,7.081 		"/>
	</g>
</g>
</svg>
